<?xml version="1.0" encoding="UTF-8"?>
<svg id="Layer_1" xmlns="http://www.w3.org/2000/svg" version="1.1" viewBox="0 0 200 200">
  <!-- Generator: Adobe Illustrator 29.6.1, SVG Export Plug-In . SVG Version: 2.1.1 Build 9)  -->
  <g id="Try_Hack_Me_White">
    <g id="g10">
      <g id="g12">
        <path id="path14" d="M123.53,98.25h-4.31v-17.79h-5.99v-4.06h16.29v4.06h-5.99v17.79"/>
        <path id="path16" d="M140.35,86.26c-2.9,0-4.37,1.97-4.37,4.93v7.05h-3.96v-15.61h2.65l.44,3.37c1.15-2.19,3.24-3.59,6.18-3.59h.66v3.84h-1.59"/>
        <path id="path18" d="M160.73,96.25c0,4.56-2.96,7.96-7.8,7.96-2.87,0-5.24-1.03-6.93-2.43l2.25-2.4c1.5.75,2.9,1.25,4.68,1.22,2.25,0,3.81-1.16,3.81-3.43v-1c-1,1.28-2.65,1.84-4.28,1.84-4.53,0-6.83-3.09-6.83-7.62v-7.74h3.96v7.52c0,2.87,1.37,3.99,3.5,3.99,2.25,0,3.68-1.34,3.68-4.34v-7.18h3.96v13.61"/>
        <path id="path20" d="M127.93,126.06v-8.96h-8.46v8.96h-4.31v-21.85h4.31v8.83h8.46v-8.83h4.31v21.85h-4.31"/>
        <path id="path22" d="M148.81,118.25c0-2.56-1.97-4.18-4.03-4.18s-4.03,1.62-4.03,4.18,1.94,4.15,4.03,4.15,4.03-1.59,4.03-4.15ZM149.81,126.06l-.22-2.22c-1.16,1.47-3.03,2.4-5.18,2.4-4.43,0-7.61-3.56-7.61-7.99s3.18-8.02,7.61-8.02c2.15,0,4.03.97,5.18,2.43l.22-2.22h2.65v15.61h-2.65"/>
        <path id="path24" d="M171,113.14l-2.37,2.56c-1.28-1.19-2.4-1.59-3.78-1.59-2.09,0-4.03,1.59-4.03,4.15s1.94,4.15,4.03,4.15c1.37,0,2.5-.4,3.78-1.59l2.37,2.56c-1.47,1.75-3.68,2.87-6.15,2.87-4.43,0-7.99-3.56-7.99-7.99s3.56-7.99,7.99-7.99c2.47,0,4.68,1.13,6.15,2.87"/>
        <path id="path26" d="M183.42,121.91c-.94-1.44-1.47-1.97-2.96-1.97h-1.09v6.12h-3.96v-21.85h3.96v11.92h.97c1.47,0,2-.5,2.93-1.97l2.43-3.71h4.4l-3.5,5.27c-.65,1.03-1.53,2-2.21,2.28.78.25,1.65,1.25,2.37,2.34l3.74,5.71h-4.4l-2.68-4.15"/>
        <path id="path28" d="M132.3,151.11v-13.95l-6.59,8.18-6.55-8.18v13.95h-4.31v-21.85h2.56l8.3,10.43,8.33-10.43h2.56v21.85h-4.31"/>
        <path id="path30" d="M145.84,141.91h7.15c0-.37-.13-.87-.37-1.25-.53-1-1.66-1.75-3.15-1.75-2.12,0-3.56,1.5-3.62,3ZM156.33,139.5c.66,1.43.69,3.56.25,4.9h-10.89c0,2.12,1.75,3.28,3.87,3.28,1.62,0,3.31-.38,4.71-1.09l2.09,2.28c-1.69,1.25-4.03,2.43-6.81,2.43-4.74,0-7.96-3.43-7.96-7.99s3-8.02,7.87-8.02c3.34,0,5.68,1.59,6.86,4.21"/>
        <path id="path32" d="M63.94,102.55v-7.4l-1.88,1.45-1.24-1.69,3.32-2.43h2.18v10.08h-2.38"/>
        <path id="path34" d="M73.7,97.48c0-.31-.02-.66-.06-1.04-.04-.38-.11-.73-.21-1.06-.1-.33-.25-.6-.45-.83-.19-.22-.45-.33-.76-.33s-.57.11-.77.33c-.2.22-.35.5-.46.83-.11.33-.18.68-.22,1.06-.04.38-.06.73-.06,1.04s.02.68.06,1.06c.04.38.11.74.22,1.07.11.33.26.6.46.83.2.22.46.34.77.34s.57-.11.76-.34c.19-.22.34-.5.45-.83.11-.33.18-.68.21-1.07.04-.38.06-.74.06-1.06ZM76.15,97.48c0,.71-.07,1.39-.21,2.04-.14.65-.37,1.21-.68,1.7-.31.49-.72.88-1.22,1.17-.5.29-1.1.43-1.82.43s-1.32-.15-1.82-.43c-.5-.29-.91-.68-1.23-1.17-.32-.49-.55-1.05-.69-1.7-.14-.65-.21-1.32-.21-2.04s.07-1.39.21-2.03c.14-.64.37-1.2.69-1.68.32-.48.73-.86,1.23-1.15.5-.28,1.11-.43,1.82-.43s1.32.14,1.82.43c.5.29.9.67,1.22,1.15.31.48.54,1.04.68,1.68.14.64.21,1.32.21,2.03"/>
        <path id="path36" d="M89.51,102.55v-7.4l-1.88,1.45-1.24-1.69,3.32-2.43h2.18v10.08h-2.38"/>
        <path id="path38" d="M99.28,97.48c0-.31-.02-.66-.06-1.04-.04-.38-.11-.73-.21-1.06-.1-.33-.25-.6-.45-.83-.19-.22-.45-.33-.76-.33s-.57.11-.77.33c-.2.22-.36.5-.46.83-.11.33-.18.68-.22,1.06-.04.38-.06.73-.06,1.04s.02.68.06,1.06c.04.38.11.74.22,1.07.11.33.26.6.46.83.2.22.46.34.77.34s.57-.11.76-.34c.19-.22.34-.5.45-.83.11-.33.18-.68.21-1.07.04-.38.06-.74.06-1.06ZM101.72,97.48c0,.71-.07,1.39-.21,2.04-.14.65-.37,1.21-.68,1.7-.31.49-.72.88-1.22,1.17-.5.29-1.1.43-1.82.43s-1.32-.15-1.82-.43c-.5-.29-.91-.68-1.23-1.17-.32-.49-.55-1.05-.69-1.7-.14-.65-.21-1.32-.21-2.04s.07-1.39.21-2.03c.14-.64.37-1.2.69-1.68s.73-.86,1.23-1.15c.5-.28,1.11-.43,1.82-.43s1.32.14,1.82.43c.5.29.9.67,1.22,1.15.31.48.54,1.04.68,1.68.14.64.21,1.32.21,2.03"/>
        <path id="path40" d="M63.72,118.42v-7.4l-1.88,1.45-1.24-1.69,3.32-2.44h2.18v10.08h-2.38"/>
        <path id="path42" d="M72.1,118.42v-7.4l-1.88,1.45-1.24-1.69,3.32-2.44h2.18v10.08h-2.38"/>
        <path id="path44" d="M80.44,118.42v-7.4l-1.88,1.45-1.24-1.69,3.31-2.44h2.18v10.08h-2.38"/>
        <path id="path46" d="M90.64,113.35c0-.31-.02-.66-.06-1.04-.04-.38-.11-.73-.21-1.06-.1-.33-.25-.6-.45-.83-.19-.22-.45-.34-.76-.34s-.57.11-.77.34c-.2.22-.35.5-.46.83-.11.33-.18.68-.22,1.06-.04.38-.06.72-.06,1.04s.02.68.06,1.06c.04.38.11.74.22,1.07.11.33.26.6.46.83.2.22.46.34.77.34s.57-.11.76-.34c.19-.22.34-.5.45-.83.1-.33.18-.68.21-1.07.04-.38.06-.74.06-1.06ZM93.08,113.35c0,.71-.07,1.39-.21,2.04-.14.65-.37,1.21-.68,1.7-.31.49-.72.88-1.22,1.17-.5.29-1.1.43-1.81.43s-1.32-.14-1.82-.43c-.5-.29-.91-.68-1.23-1.17-.32-.49-.55-1.06-.69-1.7-.14-.65-.21-1.32-.21-2.04s.07-1.39.21-2.03c.14-.64.37-1.2.69-1.68.32-.48.73-.86,1.23-1.15.5-.28,1.11-.43,1.82-.43s1.32.14,1.81.43c.5.29.9.67,1.22,1.15.31.48.54,1.04.68,1.68.14.64.21,1.32.21,2.03"/>
        <path id="path48" d="M68.53,129.72v-5.37l-1.36,1.05-.9-1.23,2.41-1.77h1.58v7.32h-1.73"/>
        <path id="path50" d="M80.63,129.72v-5.37l-1.36,1.05-.9-1.23,2.41-1.77h1.58v7.32h-1.73"/>
        <path id="path52" d="M63.7,126.04c0-.23-.01-.48-.04-.75-.03-.27-.08-.53-.16-.77-.08-.24-.18-.44-.33-.6-.14-.16-.33-.24-.55-.24s-.42.08-.56.24c-.15.16-.26.36-.34.6-.08.24-.13.5-.16.77-.03.28-.04.53-.04.75s.01.49.04.77c.03.28.08.54.16.78.08.24.19.44.34.6.14.16.33.24.56.24s.41-.08.55-.24c.14-.16.25-.36.33-.6.08-.24.13-.5.16-.78.03-.28.04-.53.04-.77ZM65.48,126.04c0,.52-.05,1.01-.15,1.48-.1.47-.27.88-.5,1.23-.23.36-.52.64-.88.85-.36.21-.8.31-1.32.31s-.96-.1-1.32-.31c-.37-.21-.66-.49-.89-.85-.23-.35-.4-.77-.5-1.23-.1-.47-.16-.96-.16-1.48s.05-1.01.16-1.47c.1-.47.27-.87.5-1.22.23-.35.53-.62.89-.83.37-.21.81-.31,1.32-.31s.96.1,1.32.31c.36.21.65.49.88.83.23.35.39.75.5,1.22.1.46.15.96.15,1.47"/>
        <path id="path54" d="M75.86,126.04c0-.23-.01-.48-.04-.75-.03-.27-.08-.53-.16-.77-.07-.24-.18-.44-.32-.6-.14-.16-.33-.24-.55-.24s-.41.08-.56.24c-.15.16-.26.36-.34.6-.08.24-.13.5-.16.77-.03.28-.04.53-.04.75s.01.49.04.77c.03.28.08.54.16.78.08.24.19.44.34.6.14.16.33.24.56.24s.41-.08.55-.24c.14-.16.25-.36.32-.6.08-.24.13-.5.16-.78.03-.28.04-.53.04-.77ZM77.64,126.04c0,.52-.05,1.01-.15,1.48-.1.47-.27.88-.5,1.23-.23.36-.52.64-.88.85-.36.21-.8.31-1.32.31s-.96-.1-1.32-.31c-.37-.21-.66-.49-.89-.85-.23-.35-.4-.77-.5-1.23-.11-.47-.16-.96-.16-1.48s.05-1.01.16-1.47c.1-.47.27-.87.5-1.22.23-.35.53-.62.89-.83.37-.21.81-.31,1.32-.31s.96.1,1.32.31c.36.21.65.49.88.83.23.35.39.75.5,1.22.1.46.15.96.15,1.47"/>
        <path id="path56" d="M100.77,129.72v-5.37l-1.36,1.05-.9-1.23,2.41-1.77h1.58v7.32h-1.73"/>
        <path id="path58" d="M96,126.04c0-.23-.01-.48-.04-.75-.03-.27-.08-.53-.16-.77-.07-.24-.18-.44-.32-.6-.14-.16-.33-.24-.55-.24s-.41.08-.56.24c-.15.16-.26.36-.34.6-.08.24-.13.5-.16.77-.03.28-.04.53-.04.75s.01.49.04.77c.03.28.08.54.16.78.08.24.19.44.34.6.14.16.33.24.56.24s.41-.08.55-.24c.14-.16.25-.36.32-.6.08-.24.13-.5.16-.78.03-.28.04-.53.04-.77ZM97.78,126.04c0,.52-.05,1.01-.15,1.48-.11.47-.27.88-.5,1.23-.23.36-.52.64-.88.85-.36.21-.8.31-1.32.31s-.96-.1-1.32-.31c-.37-.21-.66-.49-.89-.85-.23-.35-.4-.77-.5-1.23-.1-.47-.16-.96-.16-1.48s.05-1.01.16-1.47c.1-.47.27-.87.5-1.22.23-.35.53-.62.89-.83.37-.21.81-.31,1.32-.31s.96.1,1.32.31c.36.21.65.49.88.83.23.35.39.75.5,1.22.1.46.15.96.15,1.47"/>
        <path id="path60" d="M94.13,138.34v-5.37l-1.36,1.05-.9-1.23,2.41-1.77h1.58v7.32h-1.73"/>
        <path id="path62" d="M89.36,134.66c0-.23-.01-.48-.04-.75-.03-.27-.08-.53-.16-.77-.08-.24-.18-.44-.33-.6-.14-.16-.33-.24-.55-.24s-.41.08-.56.24c-.15.16-.26.36-.34.6-.08.24-.13.5-.16.77-.03.28-.04.53-.04.75s.01.49.04.77c.03.28.08.54.16.78.08.24.19.44.34.6.14.16.33.24.56.24s.41-.08.55-.24c.14-.16.25-.36.33-.6.08-.24.13-.5.16-.78.03-.28.04-.53.04-.77ZM91.14,134.66c0,.52-.05,1.01-.15,1.48-.1.47-.27.88-.5,1.24-.23.36-.52.64-.88.85-.36.21-.8.31-1.32.31s-.96-.1-1.32-.31c-.37-.21-.66-.49-.89-.85-.23-.35-.4-.77-.5-1.24-.1-.47-.16-.96-.16-1.48s.05-1.01.16-1.47c.1-.47.27-.87.5-1.22.23-.35.53-.62.89-.83.37-.21.81-.31,1.32-.31s.96.11,1.32.31c.36.21.66.49.88.83.23.35.39.75.5,1.22.1.46.15.96.15,1.47"/>
        <path id="path64" d="M66.12,138.23v-3.72l-.95.73-.62-.85,1.67-1.22h1.1v5.07h-1.2"/>
        <path id="path66" d="M62.82,135.68c0-.16-.01-.33-.03-.52-.02-.19-.06-.37-.11-.53-.05-.16-.13-.3-.23-.41-.1-.11-.23-.17-.38-.17s-.29.06-.39.17c-.1.11-.18.25-.23.41-.06.16-.09.34-.11.53-.02.19-.03.37-.03.52s0,.34.03.53c.02.19.06.37.11.54.06.16.13.3.23.42.1.11.23.17.39.17s.28-.06.38-.17c.1-.11.17-.25.23-.42.05-.16.09-.34.11-.54.02-.19.03-.37.03-.53ZM64.05,135.68c0,.36-.04.7-.11,1.02-.07.32-.19.61-.34.86-.16.25-.36.44-.61.59-.25.15-.55.22-.91.22s-.67-.07-.92-.22c-.25-.15-.46-.34-.62-.59-.16-.25-.28-.53-.35-.86-.07-.33-.11-.67-.11-1.02s.03-.7.11-1.02c.07-.32.19-.61.35-.85.16-.24.37-.43.62-.58.25-.14.56-.22.92-.22s.66.07.91.22c.25.14.46.34.61.58.16.24.27.52.34.85.07.32.11.66.11,1.02"/>
        <path id="path68" d="M81,144.74v-3.72l-.94.73-.62-.85,1.67-1.23h1.09v5.07h-1.2"/>
        <path id="path70" d="M77.7,142.19c0-.16-.01-.33-.03-.52-.02-.19-.05-.37-.11-.53s-.13-.3-.22-.41c-.1-.11-.23-.17-.38-.17s-.29.06-.38.17c-.1.11-.18.25-.23.41-.06.16-.09.34-.11.53-.02.19-.03.37-.03.52s.01.34.03.53c.02.19.06.37.11.54.05.16.13.3.23.41.1.11.23.17.38.17s.29-.06.38-.17c.1-.11.17-.25.22-.41.05-.17.09-.34.11-.54.02-.19.03-.37.03-.53ZM78.93,142.19c0,.36-.04.7-.11,1.02-.07.33-.19.61-.34.86-.16.25-.36.44-.61.59-.25.15-.55.22-.91.22s-.66-.07-.92-.22c-.25-.15-.46-.34-.62-.59-.16-.25-.28-.53-.35-.86-.07-.33-.11-.67-.11-1.02s.04-.7.11-1.02c.07-.32.19-.61.35-.84.16-.24.37-.43.62-.58.25-.14.56-.21.92-.21s.66.07.91.21c.25.14.46.34.61.58.16.24.27.52.34.84.07.32.11.66.11,1.02"/>
        <path id="path72" d="M101.44,134.66c0-.23-.01-.48-.04-.75-.03-.27-.08-.53-.16-.77-.08-.24-.18-.44-.33-.6-.14-.16-.32-.24-.55-.24s-.41.08-.56.24c-.15.16-.26.36-.34.6-.08.24-.13.5-.16.77-.03.28-.04.53-.04.75s.01.49.04.77c.03.28.08.54.16.78.08.24.19.44.34.6.14.16.33.24.56.24s.41-.08.55-.24c.14-.16.25-.36.33-.6.08-.24.13-.5.16-.78.03-.28.04-.53.04-.77ZM103.22,134.66c0,.52-.05,1.01-.16,1.48-.1.47-.27.88-.5,1.24-.23.36-.52.64-.88.85-.36.21-.8.31-1.32.31s-.96-.1-1.32-.31c-.36-.21-.66-.49-.89-.85-.23-.35-.4-.77-.5-1.24-.1-.47-.16-.96-.16-1.48s.05-1.01.16-1.47c.1-.47.27-.87.5-1.22.23-.35.53-.62.89-.83.37-.21.81-.31,1.32-.31s.96.11,1.32.31c.36.21.66.49.88.83.23.35.39.75.5,1.22.1.46.16.96.16,1.47"/>
        <path id="path74" d="M98.11,85.27c-1.69-8.24-9.03-14.23-17.46-14.23-1.28,0-2.55.15-3.77.41-2.05-12.02-12.53-21.2-25.12-21.2s-22.88,9.01-25.06,20.86c-9.07.83-16.19,8.46-16.19,17.74,0,9.82,7.99,17.82,17.82,17.82h26.66c1.36,0,2.46-1.1,2.46-2.46s-1.1-2.46-2.46-2.46h-26.66c-7.11,0-12.89-5.78-12.89-12.89s5.78-12.89,12.89-12.89c2.58,0,5.07.76,7.2,2.2,1.13.76,2.66.47,3.42-.66.76-1.13.46-2.66-.66-3.42-2.01-1.36-4.26-2.27-6.62-2.72,2.01-9.24,10.25-16.18,20.09-16.18,10.48,0,19.14,7.88,20.4,18.02-.66.36-1.31.75-1.92,1.2-1.1.8-1.35,2.34-.56,3.44.8,1.1,2.34,1.35,3.44.56,2.2-1.59,4.81-2.43,7.54-2.43,6.1,0,11.41,4.33,12.63,10.29.24,1.17,1.27,1.97,2.41,1.97.16,0,.33-.02.5-.05,1.33-.27,2.19-1.57,1.92-2.91"/>
      </g>
    </g>
  </g>
</svg>